<svg xmlns="http://www.w3.org/2000/svg" viewBox="0 0 24 24" fill="currentColor">
  <path d="M12 0C5.37 0 0 5.37 0 12c0 5.3 3.44 9.8 8.21 11.39.6.11.82-.26.82-.58v-2.24C6.73 20.92 5.92 18.9 5.92 18.9c-.55-1.4-1.34-1.77-1.34-1.77-1.1-.75.08-.74.08-.74 1.22.09 1.86 1.26 1.86 1.26 1.08 1.85 2.83 1.32 3.52 1.01.11-.78.42-1.32.76-1.62-2.66-.3-5.47-1.33-5.47-5.91 0-1.31.47-2.38 1.24-3.22-.13-.3-.54-1.52.12-3.17 0 0 1.01-.32 3.3 1.23a11.5 11.5 0 0 1 6 0c2.3-1.55 3.3-1.23 3.3-1.23.66 1.65.25 2.87.12 3.17.77.84 1.23 1.91 1.23 3.22 0 4.6-2.81 5.61-5.48 5.9.43.37.82 1.1.82 2.22v3.29c0 .32.22.7.83.58A12.003 12.003 0 0 0 24 12c0-6.63-5.37-12-12-12z"/>
</svg>
